<svg width="48" height="48" viewBox="0 0 48 48" fill="none" xmlns="http://www.w3.org/2000/svg">
<path d="M9.11136 40C6.57803 40 4.42614 39.1338 2.65568 37.4014C0.885227 35.669 0 33.5634 0 31.0845C0 28.8873 0.719697 26.9577 2.15909 25.2958C3.59848 23.6338 5.42652 22.6338 7.64318 22.2958C8.21894 19.5634 9.57197 17.331 11.7023 15.5986C13.8326 13.8662 16.2939 13 19.0864 13C22.3106 13 25.0311 14.1479 27.2477 16.4437C29.4644 18.7394 30.5727 21.493 30.5727 24.7042V25.7183C32.6455 25.662 34.4015 26.3169 35.8409 27.6831C37.2803 29.0493 38 30.7746 38 32.8592C38 34.8028 37.2803 36.4789 35.8409 37.8873C34.4015 39.2958 32.6886 40 30.7023 40H9.11136ZM9.11136 37.4648H30.7023C31.9977 37.4648 33.1061 37.0141 34.0273 36.1127C34.9485 35.2113 35.4091 34.1268 35.4091 32.8592C35.4091 31.5915 34.9485 30.507 34.0273 29.6056C33.1061 28.7042 31.9977 28.2535 30.7023 28.2535H27.9818V24.7042C27.9818 22.1408 27.1038 19.9718 25.3477 18.1972C23.5917 16.4225 21.447 15.5352 18.9136 15.5352C16.3803 15.5352 14.2284 16.4225 12.458 18.1972C10.6875 19.9718 9.80227 22.1408 9.80227 24.7042H8.98182C7.19697 24.7042 5.68561 25.3169 4.44773 26.5423C3.20985 27.7676 2.59091 29.2817 2.59091 31.0845C2.59091 32.8592 3.22424 34.3662 4.49091 35.6056C5.75758 36.8451 7.29773 37.4648 9.11136 37.4648Z" fill="#212121"/>
<path d="M33.3159 22C32.1159 22 31.0966 21.5829 30.258 20.7488C29.4193 19.9147 29 18.9009 29 17.7074C29 16.6495 29.3409 15.7204 30.0227 14.9202C30.7045 14.12 31.5705 13.6385 32.6205 13.4757C32.8932 12.1601 33.5341 11.0853 34.5432 10.2512C35.5523 9.41706 36.7182 9 38.0409 9C39.5682 9 40.8568 9.55269 41.9068 10.6581C42.9568 11.7634 43.4818 13.0892 43.4818 14.6354V15.1236C44.4636 15.0965 45.2955 15.4118 45.9773 16.0696C46.6591 16.7274 47 17.5582 47 18.5618C47 19.4977 46.6591 20.3046 45.9773 20.9828C45.2955 21.6609 44.4841 22 43.5432 22H33.3159ZM33.3159 20.7793H43.5432C44.1568 20.7793 44.6818 20.5623 45.1182 20.1283C45.5545 19.6943 45.7727 19.1721 45.7727 18.5618C45.7727 17.9515 45.5545 17.4293 45.1182 16.9953C44.6818 16.5613 44.1568 16.3443 43.5432 16.3443H42.2545V14.6354C42.2545 13.4011 41.8386 12.3568 41.0068 11.5023C40.175 10.6479 39.1591 10.2207 37.9591 10.2207C36.7591 10.2207 35.7398 10.6479 34.9011 11.5023C34.0625 12.3568 33.6432 13.4011 33.6432 14.6354H33.2545C32.4091 14.6354 31.6932 14.9304 31.1068 15.5203C30.5205 16.1103 30.2273 16.8393 30.2273 17.7074C30.2273 18.5618 30.5273 19.2874 31.1273 19.8842C31.7273 20.481 32.4568 20.7793 33.3159 20.7793Z" fill="#212121"/>
</svg>
