<svg width="48" height="48" viewBox="0 0 48 48" fill="none" xmlns="http://www.w3.org/2000/svg">
<path d="M22.5 9.5V2H25.5V9.5H22.5ZM35.3 14.8L33.2 12.7L38.5 7.35L40.6 9.5L35.3 14.8ZM38.5 25.5V22.5H46V25.5H38.5ZM22.5 46V38.5H25.5V46H22.5ZM12.65 14.75L7.4 9.5L9.5 7.4L14.8 12.7L12.65 14.75ZM38.55 40.6L33.2 35.3L35.25 33.25L40.65 38.45L38.55 40.6ZM2 25.5V22.5H9.5V25.5H2ZM9.55 40.6L7.4 38.5L12.65 33.25L13.75 34.25L14.85 35.3L9.55 40.6ZM24 36C20.6667 36 17.8333 34.8333 15.5 32.5C13.1667 30.1667 12 27.3333 12 24C12 20.6667 13.1667 17.8333 15.5 15.5C17.8333 13.1667 20.6667 12 24 12C27.3333 12 30.1667 13.1667 32.5 15.5C34.8333 17.8333 36 20.6667 36 24C36 27.3333 34.8333 30.1667 32.5 32.5C30.1667 34.8333 27.3333 36 24 36ZM24 33C26.5 33 28.625 32.125 30.375 30.375C32.125 28.625 33 26.5 33 24C33 21.5 32.125 19.375 30.375 17.625C28.625 15.875 26.5 15 24 15C21.5 15 19.375 15.875 17.625 17.625C15.875 19.375 15 21.5 15 24C15 26.5 15.875 28.625 17.625 30.375C19.375 32.125 21.5 33 24 33Z" fill="#212121"/>
</svg>
