<svg width="48" height="48" viewBox="0 0 48 48" fill="none" xmlns="http://www.w3.org/2000/svg">
<path d="M22.5 11.5V4H25.5V11.5H22.5ZM35.3 16.8L33.2 14.65L38.5 9.35L40.6 11.5L35.3 16.8ZM38.5 27.5V24.5H46V27.5H38.5ZM38.55 42.6L33.25 37.3L35.4 35.15L40.7 40.45L38.55 42.6ZM12.7 16.8L7.4 11.5L9.5 9.4L14.8 14.7L12.7 16.8ZM12 41H21C22.1 41 23.0417 40.6083 23.825 39.825C24.6083 39.0417 25 38.1 25 37C25 35.9 24.6167 34.95 23.85 34.15C23.0833 33.35 22.15 32.95 21.05 32.95H18.85L17.95 30.9C17.45 29.7 16.6583 28.75 15.575 28.05C14.4917 27.35 13.3 27 12 27C10.0667 27 8.41667 27.6833 7.05 29.05C5.68333 30.4167 5 32.0667 5 34C5 35.9333 5.68333 37.5833 7.05 38.95C8.41667 40.3167 10.0667 41 12 41ZM12 44C9.23333 44 6.875 43.025 4.925 41.075C2.975 39.125 2 36.7667 2 34C2 31.2333 2.975 28.875 4.925 26.925C6.875 24.975 9.23333 24 12 24C13.9333 24 15.6917 24.5417 17.275 25.625C18.8583 26.7083 20.0333 28.15 20.8 29.95C22.8 29.95 24.4833 30.675 25.85 32.125C27.2167 33.575 27.9 35.3167 27.9 37.35C27.7333 39.2167 27 40.7917 25.7 42.075C24.4 43.3583 22.8333 44 21 44H12ZM27.9 37.35L27.6 35.85L27.3 34.35C29.0333 33.6833 30.4167 32.5917 31.45 31.075C32.4833 29.5583 33 27.8667 33 26C33 23.5 32.125 21.375 30.375 19.625C28.625 17.875 26.5 17 24 17C21.7667 17 19.8083 17.7083 18.125 19.125C16.4417 20.5417 15.45 22.35 15.15 24.55C14.6167 24.45 14.0917 24.3583 13.575 24.275C13.0583 24.1917 12.5333 24.1 12 24C12.4667 21.0667 13.8417 18.6667 16.125 16.8C18.4083 14.9333 21.0333 14 24 14C27.3333 14 30.1667 15.1667 32.5 17.5C34.8333 19.8333 36 22.6667 36 26C36 28.6 35.2583 30.9333 33.775 33C32.2917 35.0667 30.3333 36.5167 27.9 37.35Z" fill="#212121"/>
</svg>
