<svg width="48" height="48" viewBox="0 0 48 48" fill="none" xmlns="http://www.w3.org/2000/svg">
<path d="M24 42.65L21.95 40.8C18.4167 37.5667 15.5 34.775 13.2 32.425C10.9 30.075 9.06667 27.975 7.7 26.125C6.33333 24.275 5.375 22.6 4.825 21.1C4.275 19.6 4 18.0833 4 16.55C4 13.55 5.00833 11.0417 7.025 9.025C9.04167 7.00833 11.5333 6 14.5 6C16.4 6 18.1583 6.45 19.775 7.35C21.3917 8.25 22.8 9.55 24 11.25C25.4 9.45 26.8833 8.125 28.45 7.275C30.0167 6.425 31.7 6 33.5 6C36.4667 6 38.9583 7.00833 40.975 9.025C42.9917 11.0417 44 13.55 44 16.55C44 18.0833 43.725 19.6 43.175 21.1C42.625 22.6 41.6667 24.275 40.3 26.125C38.9333 27.975 37.1 30.075 34.8 32.425C32.5 34.775 29.5833 37.5667 26.05 40.8L24 42.65Z" fill="#212121"/>
</svg>
