<svg width="48" height="48" viewBox="0 0 48 48" fill="none" xmlns="http://www.w3.org/2000/svg">
<path d="M24 43C19.6 43 15.8333 41.475 12.7 38.425C9.56667 35.375 8 31.65 8 27.25C8 25.05 8.41667 23.0083 9.25 21.125C10.0833 19.2417 11.2333 17.5667 12.7 16.1L24 5L35.3 16.1C36.7667 17.5667 37.9167 19.2417 38.75 21.125C39.5833 23.0083 40 25.05 40 27.25C40 31.6167 38.4417 35.3333 35.325 38.4C32.2083 41.4667 28.4333 43 24 43ZM24 40C27.5667 40 30.625 38.7667 33.175 36.3C35.725 33.8333 37 30.8167 37 27.25C37 25.45 36.6833 23.8167 36.05 22.35C35.4167 20.8833 34.5 19.55 33.3 18.35L24 9.2L14.7 18.35C13.5 19.55 12.5833 20.8833 11.95 22.35C11.3167 23.8167 11 25.45 11 27.25C11 30.8167 12.275 33.8333 14.825 36.3C17.375 38.7667 20.4333 40 24 40Z" fill="#212121"/>
</svg>
