<svg width="48" height="48" viewBox="0 0 48 48" fill="none" xmlns="http://www.w3.org/2000/svg">
<path d="M12 37C11.5333 37 11.125 36.825 10.775 36.475C10.425 36.125 10.25 35.7167 10.25 35.25C10.25 34.7833 10.425 34.375 10.775 34.025C11.125 33.675 11.5333 33.5 12 33.5C12.4667 33.5 12.875 33.675 13.225 34.025C13.575 34.375 13.75 34.7833 13.75 35.25C13.75 35.7167 13.575 36.125 13.225 36.475C12.875 36.825 12.4667 37 12 37ZM36 37C35.5333 37 35.125 36.825 34.775 36.475C34.425 36.125 34.25 35.7167 34.25 35.25C34.25 34.7833 34.425 34.375 34.775 34.025C35.125 33.675 35.5333 33.5 36 33.5C36.4667 33.5 36.875 33.675 37.225 34.025C37.575 34.375 37.75 34.7833 37.75 35.25C37.75 35.7167 37.575 36.125 37.225 36.475C36.875 36.825 36.4667 37 36 37ZM18 45C17.5333 45 17.125 44.825 16.775 44.475C16.425 44.125 16.25 43.7167 16.25 43.25C16.25 42.7833 16.425 42.375 16.775 42.025C17.125 41.675 17.5333 41.5 18 41.5C18.4667 41.5 18.875 41.675 19.225 42.025C19.575 42.375 19.75 42.7833 19.75 43.25C19.75 43.7167 19.575 44.125 19.225 44.475C18.875 44.825 18.4667 45 18 45ZM24 37C23.5333 37 23.125 36.825 22.775 36.475C22.425 36.125 22.25 35.7167 22.25 35.25C22.25 34.7833 22.425 34.375 22.775 34.025C23.125 33.675 23.5333 33.5 24 33.5C24.4667 33.5 24.875 33.675 25.225 34.025C25.575 34.375 25.75 34.7833 25.75 35.25C25.75 35.7167 25.575 36.125 25.225 36.475C24.875 36.825 24.4667 37 24 37ZM30 45C29.5333 45 29.125 44.825 28.775 44.475C28.425 44.125 28.25 43.7167 28.25 43.25C28.25 42.7833 28.425 42.375 28.775 42.025C29.125 41.675 29.5333 41.5 30 41.5C30.4667 41.5 30.875 41.675 31.225 42.025C31.575 42.375 31.75 42.7833 31.75 43.25C31.75 43.7167 31.575 44.125 31.225 44.475C30.875 44.825 30.4667 45 30 45ZM14.5 30C11.6 30 9.125 28.975 7.075 26.925C5.025 24.875 4 22.4 4 19.5C4 16.8667 4.94167 14.5167 6.825 12.45C8.70833 10.3833 11.05 9.25 13.85 9.05C14.9167 7.18333 16.325 5.70833 18.075 4.625C19.825 3.54167 21.8 3 24 3C27.0333 3 29.575 3.95833 31.625 5.875C33.675 7.79167 34.9333 10.1667 35.4 13C38.0333 13.1333 40.125 14.025 41.675 15.675C43.225 17.325 44 19.2667 44 21.5C44 23.8333 43.175 25.8333 41.525 27.5C39.875 29.1667 37.8667 30 35.5 30H14.5ZM14.5 27H35.5C37.0333 27 38.3333 26.4583 39.4 25.375C40.4667 24.2917 41 22.9833 41 21.45C41 19.95 40.4667 18.6667 39.4 17.6C38.3333 16.5333 37.0333 16 35.5 16H32.5V14.5C32.5 12.1333 31.675 10.125 30.025 8.475C28.375 6.825 26.3667 6 24 6C22.3 6 20.7417 6.45833 19.325 7.375C17.9083 8.29167 16.8667 9.53333 16.2 11.1L15.8 12H14.4C12.3333 12.0667 10.5833 12.825 9.15 14.275C7.71667 15.725 7 17.4667 7 19.5C7 21.5667 7.73333 23.3333 9.2 24.8C10.6667 26.2667 12.4333 27 14.5 27Z" fill="#212121"/>
</svg>
