<svg width="48" height="48" viewBox="0 0 48 48" fill="none" xmlns="http://www.w3.org/2000/svg">
<path d="M12.55 39.95C9.61667 39.95 7.125 38.925 5.075 36.875C3.025 34.825 2 32.3333 2 29.4C2 26.8 2.83333 24.5167 4.5 22.55C6.16667 20.5833 8.28333 19.4 10.85 19C11.5167 15.7667 13.0833 13.125 15.55 11.075C18.0167 9.025 20.8667 8 24.1 8C27.8333 8 30.9833 9.35833 33.55 12.075C36.1167 14.7917 37.4 18.05 37.4 21.85V23.05C39.8 22.9833 41.8333 23.7583 43.5 25.375C45.1667 26.9917 46 29.0333 46 31.5C46 33.8 45.1667 35.7833 43.5 37.45C41.8333 39.1167 39.85 39.95 37.55 39.95H12.55ZM12.55 36.95H37.55C39.05 36.95 40.3333 36.4167 41.4 35.35C42.4667 34.2833 43 33 43 31.5C43 30 42.4667 28.7167 41.4 27.65C40.3333 26.5833 39.05 26.05 37.55 26.05H34.4V21.85C34.4 18.8167 33.3833 16.25 31.35 14.15C29.3167 12.05 26.8333 11 23.9 11C20.9667 11 18.475 12.05 16.425 14.15C14.375 16.25 13.35 18.8167 13.35 21.85H12.4C10.3333 21.85 8.58333 22.575 7.15 24.025C5.71667 25.475 5 27.2667 5 29.4C5 31.5 5.73333 33.2833 7.2 34.75C8.66667 36.2167 10.45 36.95 12.55 36.95Z" fill="#212121"/>
</svg>
