<svg width="48" height="48" viewBox="0 0 48 48" fill="none" xmlns="http://www.w3.org/2000/svg">
<path d="M24 42C21.5 42 19.3584 41.1083 17.575 39.325C15.7917 37.5417 14.9 35.4 14.9 32.9C14.9 31.3 15.3 29.7833 16.1 28.35C16.9 26.9167 18 25.7667 19.4 24.9V10.6C19.4 9.33333 19.85 8.25 20.75 7.35C21.65 6.45 22.7334 6 24 6C25.2667 6 26.35 6.45 27.25 7.35C28.15 8.25 28.6 9.33333 28.6 10.6V24.9C30 25.7667 31.1 26.9167 31.9 28.35C32.7 29.7833 33.1 31.3 33.1 32.9C33.1 35.4 32.2084 37.5417 30.425 39.325C28.6417 41.1083 26.5 42 24 42ZM24 39.05C25.6 39.05 27.0167 38.425 28.25 37.175C29.4834 35.925 30.1 34.5 30.1 32.9C30.1 31.7333 29.7834 30.575 29.15 29.425C28.5167 28.275 27.6667 27.4667 26.6 27L25.6 26.55V10.6C25.6 10.1333 25.45 9.75 25.15 9.45C24.85 9.15 24.4667 9 24 9C23.5334 9 23.15 9.15 22.85 9.45C22.55 9.75 22.4 10.1333 22.4 10.6V26.55L21.4 27C20.3334 27.4667 19.4834 28.275 18.85 29.425C18.2167 30.575 17.9 31.7333 17.9 32.9C17.9 34.5 18.5167 35.925 19.75 37.175C20.9834 38.425 22.4 39.05 24 39.05Z" fill="#212121"/>
</svg>
