<svg width="48" height="48" viewBox="0 0 48 48" fill="none" xmlns="http://www.w3.org/2000/svg">
<path d="M23.75 46L28.6 40.5L24.6 38.5L30.25 32H34.25L29.4 37.5L33.4 39.5L27.75 46H23.75ZM11.75 46L16.6 40.5L12.6 38.5L18.25 32H22.25L17.4 37.5L21.4 39.5L15.75 46H11.75ZM14.5 29C11.6 29 9.125 27.975 7.075 25.925C5.025 23.875 4 21.4 4 18.5C4 15.8667 4.94167 13.5167 6.825 11.45C8.70833 9.38333 11.05 8.25 13.85 8.05C14.9167 6.18333 16.325 4.70833 18.075 3.625C19.825 2.54167 21.8 2 24 2C27.0333 2 29.575 2.95833 31.625 4.875C33.675 6.79167 34.9333 9.16667 35.4 12C38.0333 12.1333 40.125 13.025 41.675 14.675C43.225 16.325 44 18.2667 44 20.5C44 22.8333 43.175 24.8333 41.525 26.5C39.875 28.1667 37.8667 29 35.5 29H14.5ZM14.5 26H35.5C37.0333 26 38.3333 25.4583 39.4 24.375C40.4667 23.2917 41 21.9833 41 20.45C41 18.95 40.4667 17.6667 39.4 16.6C38.3333 15.5333 37.0333 15 35.5 15H32.5V13.5C32.5 11.1333 31.675 9.125 30.025 7.475C28.375 5.825 26.3667 5 24 5C22.3 5 20.7417 5.45833 19.325 6.375C17.9083 7.29167 16.8667 8.53333 16.2 10.1L15.8 11H14.4C12.3333 11.0667 10.5833 11.825 9.15 13.275C7.71667 14.725 7 16.4667 7 18.5C7 20.5667 7.73333 22.3333 9.2 23.8C10.6667 25.2667 12.4333 26 14.5 26Z" fill="#212121"/>
</svg>
