<svg width="48" height="48" viewBox="0 0 48 48" fill="none" xmlns="http://www.w3.org/2000/svg">
<path d="M2 25.5V22.5H13.6V25.5H2ZM15.55 17.65L11.55 13.65L13.65 11.55L17.65 15.55L15.55 17.65ZM22.5 13.6V2H25.5V13.6H22.5ZM32.45 17.65L30.35 15.55L34.35 11.55L36.45 13.65L32.45 17.65ZM34.4 25.5V22.5H46V25.5H34.4ZM24 29.1C22.6 29.1 21.4 28.6 20.4 27.6C19.4 26.6 18.9 25.4 18.9 24C18.9 22.5667 19.4 21.3583 20.4 20.375C21.4 19.3917 22.6 18.9 24 18.9C25.4333 18.9 26.6417 19.3917 27.625 20.375C28.6083 21.3583 29.1 22.5667 29.1 24C29.1 25.4 28.6083 26.6 27.625 27.6C26.6417 28.6 25.4333 29.1 24 29.1ZM34.6 36.7L30.35 32.45L32.45 30.35L36.7 34.6L34.6 36.7ZM13.4 36.7L11.3 34.6L15.55 30.35L17.65 32.45L13.4 36.7ZM22.5 46V34.4H25.5V46H22.5Z" fill="#212121"/>
</svg>
