<svg width="48" height="48" viewBox="0 0 48 48" fill="none" xmlns="http://www.w3.org/2000/svg">
<path d="M23.25 41C21.45 41 20.025 40.5333 18.975 39.6C17.925 38.6667 17.4 37.25 17.4 35.35H20.8C20.8 36.2167 20.9917 36.875 21.375 37.325C21.7583 37.775 22.3833 38 23.25 38C24.15 38 24.7917 37.8 25.175 37.4C25.5583 37 25.75 36.3167 25.75 35.35C25.75 34.3833 25.5583 33.675 25.175 33.225C24.7917 32.775 24.15 32.55 23.25 32.55H4V29.55H23.25C25.05 29.55 26.4167 30.0167 27.35 30.95C28.2833 31.8833 28.75 33.35 28.75 35.35C28.75 37.25 28.2833 38.6667 27.35 39.6C26.4167 40.5333 25.05 41 23.25 41ZM4 20.6V17.6H31.4C32.6333 17.6 33.5333 17.3083 34.1 16.725C34.6667 16.1417 34.95 15.1667 34.95 13.8C34.95 12.4333 34.6667 11.4583 34.1 10.875C33.5333 10.2917 32.6333 10 31.4 10C30.1333 10 29.2167 10.3417 28.65 11.025C28.0833 11.7083 27.8 12.5667 27.8 13.6H24.8C24.8 11.6667 25.3833 10.0833 26.55 8.85C27.7167 7.61667 29.3333 7 31.4 7C33.4333 7 35.0333 7.59167 36.2 8.775C37.3667 9.95833 37.95 11.6333 37.95 13.8C37.95 15.9667 37.3667 17.6417 36.2 18.825C35.0333 20.0083 33.4333 20.6 31.4 20.6H4ZM37.6 37.1V34.1C38.7667 34.1 39.625 33.775 40.175 33.125C40.725 32.475 41 31.5333 41 30.3C41 29.0333 40.6917 28.1167 40.075 27.55C39.4583 26.9833 38.5667 26.7 37.4 26.7H4V23.7H37.4C39.4667 23.7 41.0833 24.2833 42.25 25.45C43.4167 26.6167 44 28.2333 44 30.3C44 32.4333 43.45 34.1 42.35 35.3C41.25 36.5 39.6667 37.1 37.6 37.1V37.1Z" fill="#212121"/>
</svg>
